<svg xmlns="http://www.w3.org/2000/svg" width="28.8" height="23.28" viewBox="0 0 28.8 23.28">
  <path id="Shape" d="M1.587,23.28C.894,23.28,0,22.2,0,21.353V6.633c0-.369-.005-.848.621-.439.886.58,11.787,7.727,12.331,8.086a2.279,2.279,0,0,0,1.448.4,2.289,2.289,0,0,0,1.45-.4L28.181,6.194c.625-.409.619.07.619.442v14.72c0,.841-.892,1.924-1.586,1.924ZM12.952,10.265c-.4-.271-11.221-7.557-12-8.086h0C.168,1.651-.569,0,.866,0h27.07c1.436,0,.7,1.651-.086,2.177s-11.6,7.815-12,8.086a2.808,2.808,0,0,1-2.9,0Z" fill="#fff"/>
</svg>
