<svg xmlns="http://www.w3.org/2000/svg" width="26" height="27" viewBox="0 0 26 27">
    <g fill="none" fill-rule="evenodd">
        <g fill="#FFF" fill-rule="nonzero">
            <g>
                <g>
                    <path d="M24.838 19.996l-4.19-4.216c-.633-.638-1.665-.638-2.3-.003L14.625 19.5 6.5 11.375l3.728-3.728c.633-.634.635-1.662.001-2.298L6.037 1.15c-.635-.635-1.664-.635-2.3 0L.007 4.88 0 4.875C0 16.543 9.457 26 21.125 26l3.71-3.71c.634-.634.635-1.659.003-2.294zM26 13h-3.25c0-5.377-4.373-9.75-9.75-9.75V0c7.168 0 13 5.832 13 13z" transform="translate(-385 -4213) translate(-35 3997) translate(420 216.9)"/>
                    <path d="M19.5 13h-3.25c0-1.792-1.458-3.25-3.25-3.25V6.5c3.585 0 6.5 2.915 6.5 6.5z" transform="translate(-385 -4213) translate(-35 3997) translate(420 216.9)"/>
                </g>
            </g>
        </g>
    </g>
</svg>
