<svg width="57" height="57" viewBox="0 0 57 57" fill="none" xmlns="http://www.w3.org/2000/svg">
<g clip-path="url(#clip0)">
<path d="M37.2698 26.9293L25.6312 18.4689C25.2041 18.1593 24.6371 18.1126 24.1689 18.3532C23.697 18.592 23.4023 19.0769 23.4023 19.601V36.5162C23.4023 37.0459 23.697 37.529 24.1689 37.7677C24.3685 37.8684 24.5867 37.9188 24.8068 37.9188C25.094 37.9188 25.385 37.8274 25.6312 37.6465L37.2698 29.1936C37.6373 28.9231 37.8518 28.5053 37.8518 28.0614C37.8536 27.61 37.6335 27.1941 37.2698 26.9293Z" fill="white"/>
<path d="M28.0259 0.00201416C12.5451 0.00201416 0 12.5471 0 28.0279C0 43.5032 12.5451 56.0445 28.0259 56.0445C43.5031 56.0445 56.05 43.5013 56.05 28.0279C56.0519 12.5471 43.5031 0.00201416 28.0259 0.00201416ZM28.0259 51.3686C15.1339 51.3686 4.68156 40.9218 4.68156 28.0279C4.68156 15.1397 15.1339 4.67984 28.0259 4.67984C40.9161 4.67984 51.3666 15.1378 51.3666 28.0279C51.3684 40.9218 40.9161 51.3686 28.0259 51.3686Z" fill="white"/>
</g>
<defs>
<clipPath id="clip0">
<rect width="56.05" height="56.05" fill="white"/>
</clipPath>
</defs>
</svg>